<mxfile host="app.diagrams.net" modified="2024-04-29T22:56:31.931Z" agent="Mozilla/5.0 (X11; Linux x86_64) AppleWebKit/537.36 (KHTML, like Gecko) Chrome/121.0.0.0 Safari/537.36" etag="k6GrFO9B_F_TsM8wbYry" version="24.3.1" type="github">
  <diagram name="Page-1" id="ptgx6MRMU3JIALGFSwDf">
    <mxGraphModel dx="2391" dy="1087" grid="1" gridSize="10" guides="1" tooltips="1" connect="1" arrows="1" fold="1" page="1" pageScale="1" pageWidth="850" pageHeight="1100" math="0" shadow="0">
      <root>
        <mxCell id="0" />
        <mxCell id="1" parent="0" />
        <mxCell id="2ljxNgmDqB6YfOjgcQZT-61" value="" style="edgeStyle=orthogonalEdgeStyle;rounded=0;orthogonalLoop=1;jettySize=auto;html=1;" parent="1" source="2ljxNgmDqB6YfOjgcQZT-1" target="2ljxNgmDqB6YfOjgcQZT-49" edge="1">
          <mxGeometry relative="1" as="geometry">
            <Array as="points">
              <mxPoint x="880" y="150" />
              <mxPoint x="880" y="150" />
            </Array>
          </mxGeometry>
        </mxCell>
        <mxCell id="2ljxNgmDqB6YfOjgcQZT-1" value="&lt;h2&gt;&lt;b&gt;&lt;font color=&quot;#ffffff&quot;&gt;LEARN WEB-DEVELOPMENT 3 MONTHS&lt;/font&gt;&lt;/b&gt;&lt;/h2&gt;" style="rounded=0;whiteSpace=wrap;html=1;fillColor=#000080;" parent="1" vertex="1">
          <mxGeometry x="540" y="50" width="650" height="60" as="geometry" />
        </mxCell>
        <mxCell id="2ljxNgmDqB6YfOjgcQZT-6" value="" style="edgeStyle=orthogonalEdgeStyle;rounded=0;orthogonalLoop=1;jettySize=auto;html=1;exitX=0.5;exitY=1;exitDx=0;exitDy=0;entryX=0.5;entryY=0;entryDx=0;entryDy=0;" parent="1" source="2ljxNgmDqB6YfOjgcQZT-3" target="2ljxNgmDqB6YfOjgcQZT-5" edge="1">
          <mxGeometry relative="1" as="geometry">
            <mxPoint x="885" y="840.0000000000002" as="sourcePoint" />
            <mxPoint x="300" y="830" as="targetPoint" />
            <Array as="points">
              <mxPoint x="880" y="850" />
              <mxPoint x="295" y="850" />
            </Array>
          </mxGeometry>
        </mxCell>
        <mxCell id="2ljxNgmDqB6YfOjgcQZT-15" style="edgeStyle=orthogonalEdgeStyle;rounded=0;orthogonalLoop=1;jettySize=auto;html=1;entryX=0.5;entryY=0;entryDx=0;entryDy=0;" parent="1" target="2ljxNgmDqB6YfOjgcQZT-8" edge="1">
          <mxGeometry relative="1" as="geometry">
            <mxPoint x="1319" y="890" as="targetPoint" />
            <mxPoint x="850" y="820" as="sourcePoint" />
            <Array as="points">
              <mxPoint x="880" y="820" />
              <mxPoint x="880" y="850" />
              <mxPoint x="1323" y="850" />
              <mxPoint x="1323" y="920" />
            </Array>
          </mxGeometry>
        </mxCell>
        <mxCell id="2ljxNgmDqB6YfOjgcQZT-3" value="&lt;h2&gt;&lt;b&gt;&lt;font color=&quot;#ffffff&quot;&gt;KEY SKILLS AND TECHNOLOGIES&lt;/font&gt;&lt;/b&gt;&lt;/h2&gt;" style="rounded=0;whiteSpace=wrap;html=1;fillColor=#006400;" parent="1" vertex="1">
          <mxGeometry x="715" y="760" width="330" height="60" as="geometry" />
        </mxCell>
        <mxCell id="Xf_xQN7SUd8G-yfiMLFL-4" value="" style="edgeStyle=orthogonalEdgeStyle;rounded=0;orthogonalLoop=1;jettySize=auto;html=1;" parent="1" source="2ljxNgmDqB6YfOjgcQZT-5" target="Xf_xQN7SUd8G-yfiMLFL-3" edge="1">
          <mxGeometry relative="1" as="geometry" />
        </mxCell>
        <mxCell id="2ljxNgmDqB6YfOjgcQZT-5" value="&lt;h2&gt;&lt;font color=&quot;#ffffff&quot;&gt;ADVANCED HTML&lt;/font&gt;&lt;/h2&gt;" style="whiteSpace=wrap;html=1;rounded=0;fillColor=#FF3333;" parent="1" vertex="1">
          <mxGeometry x="180" y="920" width="230" height="80" as="geometry" />
        </mxCell>
        <mxCell id="Xf_xQN7SUd8G-yfiMLFL-6" value="" style="edgeStyle=orthogonalEdgeStyle;rounded=0;orthogonalLoop=1;jettySize=auto;html=1;" parent="1" source="2ljxNgmDqB6YfOjgcQZT-8" target="Xf_xQN7SUd8G-yfiMLFL-5" edge="1">
          <mxGeometry relative="1" as="geometry" />
        </mxCell>
        <mxCell id="Xf_xQN7SUd8G-yfiMLFL-7" value="" style="edgeStyle=orthogonalEdgeStyle;rounded=0;orthogonalLoop=1;jettySize=auto;html=1;" parent="1" source="2ljxNgmDqB6YfOjgcQZT-8" target="Xf_xQN7SUd8G-yfiMLFL-5" edge="1">
          <mxGeometry relative="1" as="geometry" />
        </mxCell>
        <mxCell id="Xf_xQN7SUd8G-yfiMLFL-8" value="" style="edgeStyle=orthogonalEdgeStyle;rounded=0;orthogonalLoop=1;jettySize=auto;html=1;" parent="1" source="2ljxNgmDqB6YfOjgcQZT-8" target="Xf_xQN7SUd8G-yfiMLFL-5" edge="1">
          <mxGeometry relative="1" as="geometry" />
        </mxCell>
        <mxCell id="Xf_xQN7SUd8G-yfiMLFL-11" value="" style="edgeStyle=orthogonalEdgeStyle;rounded=0;orthogonalLoop=1;jettySize=auto;html=1;" parent="1" source="2ljxNgmDqB6YfOjgcQZT-8" target="Xf_xQN7SUd8G-yfiMLFL-5" edge="1">
          <mxGeometry relative="1" as="geometry" />
        </mxCell>
        <mxCell id="Xf_xQN7SUd8G-yfiMLFL-12" value="" style="edgeStyle=orthogonalEdgeStyle;rounded=0;orthogonalLoop=1;jettySize=auto;html=1;" parent="1" source="2ljxNgmDqB6YfOjgcQZT-8" target="Xf_xQN7SUd8G-yfiMLFL-5" edge="1">
          <mxGeometry relative="1" as="geometry" />
        </mxCell>
        <mxCell id="Xf_xQN7SUd8G-yfiMLFL-14" value="" style="edgeStyle=orthogonalEdgeStyle;rounded=0;orthogonalLoop=1;jettySize=auto;html=1;" parent="1" source="2ljxNgmDqB6YfOjgcQZT-8" target="Xf_xQN7SUd8G-yfiMLFL-13" edge="1">
          <mxGeometry relative="1" as="geometry" />
        </mxCell>
        <mxCell id="2ljxNgmDqB6YfOjgcQZT-8" value="&lt;h2&gt;&lt;b&gt;&lt;font color=&quot;#ffffff&quot;&gt;ADVANCED CSS&lt;/font&gt;&lt;/b&gt;&lt;/h2&gt;" style="rounded=0;whiteSpace=wrap;html=1;fillColor=#008080;" parent="1" vertex="1">
          <mxGeometry x="1230" y="920" width="180" height="60" as="geometry" />
        </mxCell>
        <mxCell id="2ljxNgmDqB6YfOjgcQZT-21" value="" style="edgeStyle=orthogonalEdgeStyle;rounded=0;orthogonalLoop=1;jettySize=auto;html=1;" parent="1" source="2ljxNgmDqB6YfOjgcQZT-11" target="2ljxNgmDqB6YfOjgcQZT-20" edge="1">
          <mxGeometry relative="1" as="geometry">
            <Array as="points">
              <mxPoint x="885" y="1050" />
              <mxPoint x="748" y="1050" />
            </Array>
          </mxGeometry>
        </mxCell>
        <mxCell id="2ljxNgmDqB6YfOjgcQZT-26" value="" style="edgeStyle=orthogonalEdgeStyle;rounded=0;orthogonalLoop=1;jettySize=auto;html=1;" parent="1" source="2ljxNgmDqB6YfOjgcQZT-11" target="2ljxNgmDqB6YfOjgcQZT-25" edge="1">
          <mxGeometry relative="1" as="geometry">
            <Array as="points">
              <mxPoint x="885" y="1050" />
              <mxPoint x="1035" y="1050" />
            </Array>
          </mxGeometry>
        </mxCell>
        <mxCell id="2ljxNgmDqB6YfOjgcQZT-11" value="&lt;h2&gt;&lt;font color=&quot;#ffffff&quot;&gt;ADVANCED JS&lt;/font&gt;&lt;/h2&gt;" style="rounded=0;whiteSpace=wrap;html=1;fillColor=#999900;" parent="1" vertex="1">
          <mxGeometry x="820" y="920" width="120" height="50" as="geometry" />
        </mxCell>
        <mxCell id="Xf_xQN7SUd8G-yfiMLFL-22" value="" style="edgeStyle=orthogonalEdgeStyle;rounded=0;orthogonalLoop=1;jettySize=auto;html=1;" parent="1" source="2ljxNgmDqB6YfOjgcQZT-20" target="Xf_xQN7SUd8G-yfiMLFL-21" edge="1">
          <mxGeometry relative="1" as="geometry" />
        </mxCell>
        <mxCell id="2ljxNgmDqB6YfOjgcQZT-20" value="&lt;h2&gt;&lt;b&gt;&lt;font color=&quot;#ffffff&quot;&gt;NODE.JS&lt;/font&gt;&lt;/b&gt;&lt;/h2&gt;" style="whiteSpace=wrap;html=1;rounded=0;fillColor=#8CC84B;" parent="1" vertex="1">
          <mxGeometry x="655" y="1130" width="185" height="70" as="geometry" />
        </mxCell>
        <mxCell id="Xf_xQN7SUd8G-yfiMLFL-19" value="" style="edgeStyle=orthogonalEdgeStyle;rounded=0;orthogonalLoop=1;jettySize=auto;html=1;" parent="1" source="2ljxNgmDqB6YfOjgcQZT-25" target="Xf_xQN7SUd8G-yfiMLFL-18" edge="1">
          <mxGeometry relative="1" as="geometry" />
        </mxCell>
        <mxCell id="2ljxNgmDqB6YfOjgcQZT-25" value="&lt;h2&gt;&lt;b&gt;&lt;font color=&quot;#ffffff&quot;&gt;REACT&lt;/font&gt;&lt;/b&gt;&lt;/h2&gt;" style="whiteSpace=wrap;html=1;rounded=0;fillColor=#00D8FF;" parent="1" vertex="1">
          <mxGeometry x="955" y="1135" width="170" height="60" as="geometry" />
        </mxCell>
        <mxCell id="2ljxNgmDqB6YfOjgcQZT-32" value="" style="edgeStyle=orthogonalEdgeStyle;rounded=0;orthogonalLoop=1;jettySize=auto;html=1;exitX=0.455;exitY=0;exitDx=0;exitDy=0;exitPerimeter=0;" parent="1" source="2ljxNgmDqB6YfOjgcQZT-28" edge="1">
          <mxGeometry relative="1" as="geometry">
            <mxPoint x="555" y="570" as="targetPoint" />
            <Array as="points">
              <mxPoint x="880" y="400" />
              <mxPoint x="880" y="490" />
              <mxPoint x="555" y="490" />
            </Array>
          </mxGeometry>
        </mxCell>
        <mxCell id="2ljxNgmDqB6YfOjgcQZT-39" style="edgeStyle=orthogonalEdgeStyle;rounded=0;orthogonalLoop=1;jettySize=auto;html=1;entryX=0.5;entryY=0;entryDx=0;entryDy=0;" parent="1" edge="1">
          <mxGeometry relative="1" as="geometry">
            <mxPoint x="1160" y="570" as="targetPoint" />
            <Array as="points">
              <mxPoint x="880" y="460" />
              <mxPoint x="880" y="490" />
              <mxPoint x="1160" y="490" />
            </Array>
            <mxPoint x="890" y="460" as="sourcePoint" />
          </mxGeometry>
        </mxCell>
        <mxCell id="2ljxNgmDqB6YfOjgcQZT-28" value="&lt;h2&gt;&lt;b style=&quot;background-color: rgb(0, 100, 0);&quot;&gt;&lt;font color=&quot;#ffffff&quot;&gt;NETWORK AND SECURITY&amp;nbsp;&lt;/font&gt;&lt;/b&gt;&lt;/h2&gt;" style="whiteSpace=wrap;html=1;rounded=0;fillColor=#006633;" parent="1" vertex="1">
          <mxGeometry x="690" y="400" width="380" height="60" as="geometry" />
        </mxCell>
        <mxCell id="2ljxNgmDqB6YfOjgcQZT-31" value="&lt;h2&gt;&lt;b&gt;&lt;font color=&quot;#ffffff&quot;&gt;COMPTIA SECURITY +&lt;/font&gt;&lt;/b&gt;&lt;/h2&gt;" style="whiteSpace=wrap;html=1;rounded=0;fillColor=#CC0000;" parent="1" vertex="1">
          <mxGeometry x="440" y="570" width="240" height="60" as="geometry" />
        </mxCell>
        <mxCell id="2ljxNgmDqB6YfOjgcQZT-33" value="&lt;h2&gt;&lt;b&gt;&lt;font color=&quot;#ffffff&quot;&gt;COMPUTER NETWORK&lt;/font&gt;&lt;/b&gt;&lt;/h2&gt;" style="whiteSpace=wrap;html=1;rounded=0;fillColor=#008080;" parent="1" vertex="1">
          <mxGeometry x="1035" y="570" width="230" height="60" as="geometry" />
        </mxCell>
        <mxCell id="2ljxNgmDqB6YfOjgcQZT-48" value="" style="endArrow=none;html=1;rounded=0;exitX=0.5;exitY=0;exitDx=0;exitDy=0;" parent="1" source="2ljxNgmDqB6YfOjgcQZT-3" edge="1">
          <mxGeometry width="50" height="50" relative="1" as="geometry">
            <mxPoint x="881" y="750" as="sourcePoint" />
            <mxPoint x="880" y="620" as="targetPoint" />
          </mxGeometry>
        </mxCell>
        <mxCell id="2ljxNgmDqB6YfOjgcQZT-49" value="&lt;h2&gt;&lt;b&gt;&lt;font color=&quot;#ffffff&quot;&gt;WEB 3 UX/UI DESIGN&amp;nbsp;&lt;/font&gt;&lt;/b&gt;&lt;/h2&gt;" style="rounded=0;whiteSpace=wrap;html=1;fillColor=#F19C99;" parent="1" vertex="1">
          <mxGeometry x="700" y="210" width="330" height="50" as="geometry" />
        </mxCell>
        <mxCell id="2ljxNgmDqB6YfOjgcQZT-50" value="&lt;h2&gt;&lt;b&gt;&lt;font color=&quot;#ffffff&quot;&gt;MODERN CRYPTOGRAPHY&lt;/font&gt;&lt;/b&gt;&lt;/h2&gt;" style="rounded=0;whiteSpace=wrap;html=1;fillColor=#;strokeColor=#000080;" parent="1" vertex="1">
          <mxGeometry x="775" y="570" width="190" height="60" as="geometry" />
        </mxCell>
        <mxCell id="2ljxNgmDqB6YfOjgcQZT-55" value="" style="endArrow=none;html=1;rounded=0;exitX=0.559;exitY=-0.047;exitDx=0;exitDy=0;exitPerimeter=0;" parent="1" source="2ljxNgmDqB6YfOjgcQZT-50" edge="1">
          <mxGeometry width="50" height="50" relative="1" as="geometry">
            <mxPoint x="880" y="550" as="sourcePoint" />
            <mxPoint x="880" y="490" as="targetPoint" />
          </mxGeometry>
        </mxCell>
        <mxCell id="2ljxNgmDqB6YfOjgcQZT-60" value="" style="endArrow=classic;html=1;rounded=0;exitX=0.5;exitY=1;exitDx=0;exitDy=0;" parent="1" edge="1">
          <mxGeometry width="50" height="50" relative="1" as="geometry">
            <mxPoint x="882.51" y="266" as="sourcePoint" />
            <mxPoint x="877.49" y="400" as="targetPoint" />
            <Array as="points">
              <mxPoint x="877.49" y="260" />
            </Array>
          </mxGeometry>
        </mxCell>
        <mxCell id="2ljxNgmDqB6YfOjgcQZT-63" value="&lt;h2&gt;&lt;font color=&quot;#ffffff&quot;&gt;SQL&amp;nbsp;&lt;/font&gt;&lt;/h2&gt;" style="rounded=0;whiteSpace=wrap;html=1;fillColor=#6666FF;" parent="1" vertex="1">
          <mxGeometry x="540" y="920" width="120" height="50" as="geometry" />
        </mxCell>
        <mxCell id="2ljxNgmDqB6YfOjgcQZT-66" value="" style="endArrow=classic;html=1;rounded=0;" parent="1" edge="1">
          <mxGeometry width="50" height="50" relative="1" as="geometry">
            <mxPoint x="600" y="850" as="sourcePoint" />
            <mxPoint x="600" y="920" as="targetPoint" />
          </mxGeometry>
        </mxCell>
        <mxCell id="2ljxNgmDqB6YfOjgcQZT-71" value="" style="endArrow=none;html=1;rounded=0;exitX=0.5;exitY=0;exitDx=0;exitDy=0;" parent="1" source="2ljxNgmDqB6YfOjgcQZT-11" edge="1">
          <mxGeometry width="50" height="50" relative="1" as="geometry">
            <mxPoint x="1170" y="810" as="sourcePoint" />
            <mxPoint x="880" y="850" as="targetPoint" />
          </mxGeometry>
        </mxCell>
        <mxCell id="Xf_xQN7SUd8G-yfiMLFL-17" value="" style="edgeStyle=orthogonalEdgeStyle;rounded=0;orthogonalLoop=1;jettySize=auto;html=1;" parent="1" source="Xf_xQN7SUd8G-yfiMLFL-3" target="Xf_xQN7SUd8G-yfiMLFL-16" edge="1">
          <mxGeometry relative="1" as="geometry" />
        </mxCell>
        <mxCell id="Xf_xQN7SUd8G-yfiMLFL-3" value="&lt;h2&gt;DESIGN TECNIQUES&lt;/h2&gt;" style="whiteSpace=wrap;html=1;fillColor=#dae8fc;rounded=0;strokeColor=#6c8ebf;" parent="1" vertex="1">
          <mxGeometry x="180" y="1070" width="230" height="85" as="geometry" />
        </mxCell>
        <mxCell id="Xf_xQN7SUd8G-yfiMLFL-5" value="&lt;h2&gt;&lt;font color=&quot;#ffffff&quot;&gt;RESPONSIVE DESIGN&lt;/font&gt;&lt;/h2&gt;" style="rounded=0;whiteSpace=wrap;html=1;fillColor=#008080;" parent="1" vertex="1">
          <mxGeometry x="1360" y="1050" width="180" height="60" as="geometry" />
        </mxCell>
        <mxCell id="Xf_xQN7SUd8G-yfiMLFL-13" value="&lt;h2&gt;&lt;font color=&quot;#ffffff&quot;&gt;GRID LAYOUT&lt;/font&gt;&lt;/h2&gt;" style="whiteSpace=wrap;html=1;fillColor=#008080;rounded=0;" parent="1" vertex="1">
          <mxGeometry x="1140" y="1050" width="150" height="60" as="geometry" />
        </mxCell>
        <mxCell id="Xf_xQN7SUd8G-yfiMLFL-15" style="edgeStyle=orthogonalEdgeStyle;rounded=0;orthogonalLoop=1;jettySize=auto;html=1;exitX=0.5;exitY=1;exitDx=0;exitDy=0;" parent="1" source="Xf_xQN7SUd8G-yfiMLFL-5" target="Xf_xQN7SUd8G-yfiMLFL-5" edge="1">
          <mxGeometry relative="1" as="geometry" />
        </mxCell>
        <mxCell id="QJuxJTQTT-bbV8u5nAK--36" style="edgeStyle=orthogonalEdgeStyle;rounded=0;orthogonalLoop=1;jettySize=auto;html=1;entryX=0.5;entryY=0;entryDx=0;entryDy=0;" edge="1" parent="1" source="Xf_xQN7SUd8G-yfiMLFL-16" target="QJuxJTQTT-bbV8u5nAK--34">
          <mxGeometry relative="1" as="geometry">
            <mxPoint x="295" y="1420" as="targetPoint" />
          </mxGeometry>
        </mxCell>
        <mxCell id="Xf_xQN7SUd8G-yfiMLFL-16" value="&lt;h2&gt;&lt;b&gt;SMART CONTACT DEVELOPMENT&lt;/b&gt;&lt;/h2&gt;" style="whiteSpace=wrap;html=1;fillColor=#fff2cc;strokeColor=#d6b656;rounded=0;" parent="1" vertex="1">
          <mxGeometry x="170" y="1222.5" width="250" height="97.5" as="geometry" />
        </mxCell>
        <mxCell id="Xf_xQN7SUd8G-yfiMLFL-18" value="&lt;h2&gt;&lt;b&gt;BOOTSTRAP&lt;/b&gt;&lt;/h2&gt;" style="whiteSpace=wrap;html=1;fillColor=#d5e8d4;rounded=0;strokeColor=#82b366;" parent="1" vertex="1">
          <mxGeometry x="950" y="1290" width="180" height="60" as="geometry" />
        </mxCell>
        <mxCell id="Xf_xQN7SUd8G-yfiMLFL-21" value="&lt;h2&gt;&lt;b&gt;TAILWIND CSS&lt;/b&gt;&lt;/h2&gt;" style="whiteSpace=wrap;html=1;fillColor=#e1d5e7;rounded=0;strokeColor=#9673a6;" parent="1" vertex="1">
          <mxGeometry x="657.5" y="1310" width="180" height="75" as="geometry" />
        </mxCell>
        <mxCell id="QJuxJTQTT-bbV8u5nAK--1" value="" style="endArrow=none;html=1;rounded=0;fillColor=#330000;entryX=1.009;entryY=0.107;entryDx=0;entryDy=0;entryPerimeter=0;" edge="1" parent="1">
          <mxGeometry width="50" height="50" relative="1" as="geometry">
            <mxPoint x="180" y="1150" as="sourcePoint" />
            <mxPoint x="412.0699999999997" y="1076.7800000000002" as="targetPoint" />
          </mxGeometry>
        </mxCell>
        <mxCell id="QJuxJTQTT-bbV8u5nAK--6" value="" style="endArrow=none;html=1;rounded=0;fillColor=#330000;exitX=0;exitY=1;exitDx=0;exitDy=0;entryX=1;entryY=1;entryDx=0;entryDy=0;" edge="1" parent="1" target="Xf_xQN7SUd8G-yfiMLFL-3">
          <mxGeometry width="50" height="50" relative="1" as="geometry">
            <mxPoint x="180" y="1070" as="sourcePoint" />
            <mxPoint x="410" y="1121.78" as="targetPoint" />
          </mxGeometry>
        </mxCell>
        <mxCell id="QJuxJTQTT-bbV8u5nAK--7" value="" style="endArrow=none;html=1;rounded=0;fillColor=#330000;exitX=0;exitY=1;exitDx=0;exitDy=0;entryX=1;entryY=0;entryDx=0;entryDy=0;elbow=vertical;" edge="1" parent="1" source="Xf_xQN7SUd8G-yfiMLFL-18" target="Xf_xQN7SUd8G-yfiMLFL-18">
          <mxGeometry width="50" height="50" relative="1" as="geometry">
            <mxPoint x="970" y="1365" as="sourcePoint" />
            <mxPoint x="1140" y="1275" as="targetPoint" />
          </mxGeometry>
        </mxCell>
        <mxCell id="QJuxJTQTT-bbV8u5nAK--8" value="" style="endArrow=none;html=1;rounded=0;fillColor=#330000;entryX=1;entryY=1;entryDx=0;entryDy=0;" edge="1" parent="1" target="Xf_xQN7SUd8G-yfiMLFL-5">
          <mxGeometry width="50" height="50" relative="1" as="geometry">
            <mxPoint x="1360" y="1050" as="sourcePoint" />
            <mxPoint x="1572.07" y="1135" as="targetPoint" />
          </mxGeometry>
        </mxCell>
        <mxCell id="QJuxJTQTT-bbV8u5nAK--11" value="" style="endArrow=none;html=1;rounded=0;fillColor=#330000;" edge="1" parent="1">
          <mxGeometry width="50" height="50" relative="1" as="geometry">
            <mxPoint x="960" y="1200" as="sourcePoint" />
            <mxPoint x="1120" y="1140" as="targetPoint" />
          </mxGeometry>
        </mxCell>
        <mxCell id="QJuxJTQTT-bbV8u5nAK--12" value="" style="endArrow=none;html=1;rounded=0;fillColor=#330000;exitX=0.042;exitY=0.029;exitDx=0;exitDy=0;exitPerimeter=0;" edge="1" parent="1">
          <mxGeometry width="50" height="50" relative="1" as="geometry">
            <mxPoint x="962.77" y="1132.03" as="sourcePoint" />
            <mxPoint x="1130" y="1190" as="targetPoint" />
          </mxGeometry>
        </mxCell>
        <mxCell id="QJuxJTQTT-bbV8u5nAK--14" value="" style="endArrow=none;html=1;rounded=0;fillColor=#330000;entryX=1;entryY=1;entryDx=0;entryDy=0;" edge="1" parent="1" target="Xf_xQN7SUd8G-yfiMLFL-18">
          <mxGeometry width="50" height="50" relative="1" as="geometry">
            <mxPoint x="955" y="1290" as="sourcePoint" />
            <mxPoint x="1167.07" y="1375" as="targetPoint" />
          </mxGeometry>
        </mxCell>
        <mxCell id="QJuxJTQTT-bbV8u5nAK--15" value="D" style="endArrow=none;html=1;rounded=0;fillColor=#330000;" edge="1" parent="1">
          <mxGeometry width="50" height="50" relative="1" as="geometry">
            <mxPoint x="1370" y="1110" as="sourcePoint" />
            <mxPoint x="1535" y="1050" as="targetPoint" />
          </mxGeometry>
        </mxCell>
        <mxCell id="QJuxJTQTT-bbV8u5nAK--17" value="D" style="endArrow=none;html=1;rounded=0;fillColor=#330000;" edge="1" parent="1">
          <mxGeometry width="50" height="50" relative="1" as="geometry">
            <mxPoint x="1135" y="1110" as="sourcePoint" />
            <mxPoint x="1300" y="1050" as="targetPoint" />
          </mxGeometry>
        </mxCell>
        <mxCell id="QJuxJTQTT-bbV8u5nAK--18" value="" style="endArrow=none;html=1;rounded=0;fillColor=#330000;entryX=1;entryY=1;entryDx=0;entryDy=0;exitX=0;exitY=0;exitDx=0;exitDy=0;" edge="1" parent="1" source="Xf_xQN7SUd8G-yfiMLFL-13" target="Xf_xQN7SUd8G-yfiMLFL-13">
          <mxGeometry width="50" height="50" relative="1" as="geometry">
            <mxPoint x="1125" y="1050" as="sourcePoint" />
            <mxPoint x="1305" y="1110" as="targetPoint" />
          </mxGeometry>
        </mxCell>
        <mxCell id="QJuxJTQTT-bbV8u5nAK--24" value="" style="endArrow=none;html=1;rounded=0;fillColor=#330000;entryX=1;entryY=1;entryDx=0;entryDy=0;" edge="1" parent="1" target="2ljxNgmDqB6YfOjgcQZT-11">
          <mxGeometry width="50" height="50" relative="1" as="geometry">
            <mxPoint x="820" y="920" as="sourcePoint" />
            <mxPoint x="995" y="980" as="targetPoint" />
          </mxGeometry>
        </mxCell>
        <mxCell id="QJuxJTQTT-bbV8u5nAK--25" value="" style="endArrow=none;html=1;rounded=0;fillColor=#330000;exitX=0.072;exitY=1.088;exitDx=0;exitDy=0;entryX=1;entryY=0;entryDx=0;entryDy=0;exitPerimeter=0;" edge="1" parent="1" source="2ljxNgmDqB6YfOjgcQZT-11">
          <mxGeometry width="50" height="50" relative="1" as="geometry">
            <mxPoint x="760" y="980" as="sourcePoint" />
            <mxPoint x="940" y="920" as="targetPoint" />
          </mxGeometry>
        </mxCell>
        <mxCell id="QJuxJTQTT-bbV8u5nAK--26" value="" style="endArrow=none;html=1;rounded=0;fillColor=#330000;exitX=0;exitY=1;exitDx=0;exitDy=0;entryX=1;entryY=0;entryDx=0;entryDy=0;elbow=vertical;" edge="1" parent="1" target="2ljxNgmDqB6YfOjgcQZT-5">
          <mxGeometry width="50" height="50" relative="1" as="geometry">
            <mxPoint x="180" y="1000" as="sourcePoint" />
            <mxPoint x="360" y="940" as="targetPoint" />
          </mxGeometry>
        </mxCell>
        <mxCell id="QJuxJTQTT-bbV8u5nAK--27" value="" style="endArrow=none;html=1;rounded=0;fillColor=#330000;entryX=1;entryY=1;entryDx=0;entryDy=0;" edge="1" parent="1" target="2ljxNgmDqB6YfOjgcQZT-5">
          <mxGeometry width="50" height="50" relative="1" as="geometry">
            <mxPoint x="180" y="920" as="sourcePoint" />
            <mxPoint x="355" y="980" as="targetPoint" />
          </mxGeometry>
        </mxCell>
        <mxCell id="QJuxJTQTT-bbV8u5nAK--28" value="D" style="endArrow=none;html=1;rounded=0;fillColor=#330000;entryX=1;entryY=0;entryDx=0;entryDy=0;" edge="1" parent="1" target="2ljxNgmDqB6YfOjgcQZT-8">
          <mxGeometry width="50" height="50" relative="1" as="geometry">
            <mxPoint x="1230" y="980" as="sourcePoint" />
            <mxPoint x="1395" y="920" as="targetPoint" />
          </mxGeometry>
        </mxCell>
        <mxCell id="QJuxJTQTT-bbV8u5nAK--29" value="" style="endArrow=none;html=1;rounded=0;fillColor=#330000;entryX=1;entryY=1;entryDx=0;entryDy=0;" edge="1" parent="1">
          <mxGeometry width="50" height="50" relative="1" as="geometry">
            <mxPoint x="1230" y="920" as="sourcePoint" />
            <mxPoint x="1410" y="980" as="targetPoint" />
          </mxGeometry>
        </mxCell>
        <mxCell id="QJuxJTQTT-bbV8u5nAK--30" value="" style="endArrow=none;html=1;rounded=0;fillColor=#330000;exitX=0.072;exitY=1.088;exitDx=0;exitDy=0;entryX=1;entryY=0;entryDx=0;entryDy=0;exitPerimeter=0;" edge="1" parent="1" target="2ljxNgmDqB6YfOjgcQZT-49">
          <mxGeometry width="50" height="50" relative="1" as="geometry">
            <mxPoint x="700" y="262" as="sourcePoint" />
            <mxPoint x="811" y="208" as="targetPoint" />
          </mxGeometry>
        </mxCell>
        <mxCell id="QJuxJTQTT-bbV8u5nAK--31" value="" style="endArrow=none;html=1;rounded=0;fillColor=#330000;exitX=0;exitY=0;exitDx=0;exitDy=0;entryX=1;entryY=1;entryDx=0;entryDy=0;exitPerimeter=0;" edge="1" parent="1" source="2ljxNgmDqB6YfOjgcQZT-49" target="2ljxNgmDqB6YfOjgcQZT-49">
          <mxGeometry width="50" height="50" relative="1" as="geometry">
            <mxPoint x="710" y="272" as="sourcePoint" />
            <mxPoint x="1040" y="220" as="targetPoint" />
          </mxGeometry>
        </mxCell>
        <mxCell id="QJuxJTQTT-bbV8u5nAK--34" value="&lt;h2&gt;AWS&amp;nbsp;&lt;/h2&gt;" style="whiteSpace=wrap;html=1;fillColor=#A15000;strokeColor=#d6b656;rounded=0;" vertex="1" parent="1">
          <mxGeometry x="170" y="1430" width="250" height="97.5" as="geometry" />
        </mxCell>
        <mxCell id="QJuxJTQTT-bbV8u5nAK--37" value="&lt;b&gt;NEXT.JS&lt;/b&gt;" style="whiteSpace=wrap;html=1;fillColor=#B3B3B3;" vertex="1" parent="1">
          <mxGeometry x="950" y="1448.75" width="190" height="60" as="geometry" />
        </mxCell>
        <mxCell id="QJuxJTQTT-bbV8u5nAK--38" value="" style="edgeStyle=orthogonalEdgeStyle;rounded=0;orthogonalLoop=1;jettySize=auto;html=1;" edge="1" parent="1">
          <mxGeometry relative="1" as="geometry">
            <mxPoint x="1039.29" y="1350" as="sourcePoint" />
            <mxPoint x="1039.29" y="1445" as="targetPoint" />
          </mxGeometry>
        </mxCell>
        <mxCell id="QJuxJTQTT-bbV8u5nAK--39" value="&lt;b&gt;VUE.JS&lt;/b&gt;" style="whiteSpace=wrap;html=1;fillColor=#97D077;" vertex="1" parent="1">
          <mxGeometry x="950" y="1610" width="190" height="60" as="geometry" />
        </mxCell>
        <mxCell id="QJuxJTQTT-bbV8u5nAK--40" value="" style="edgeStyle=orthogonalEdgeStyle;rounded=0;orthogonalLoop=1;jettySize=auto;html=1;" edge="1" parent="1">
          <mxGeometry relative="1" as="geometry">
            <mxPoint x="1039.29" y="1508.75" as="sourcePoint" />
            <mxPoint x="1039.29" y="1603.75" as="targetPoint" />
          </mxGeometry>
        </mxCell>
      </root>
    </mxGraphModel>
  </diagram>
</mxfile>
